/* XPM */
static char *payprocoin__[] = {
/* columns rows colors chars-per-pixel */
"64 64 256 2",
"   c #15181A",
".  c #0C1820",
"X  c #1B2429",
"o  c #1C2E3A",
"O  c #222629",
"+  c #24292B",
"@  c #212527",
"#  c #273237",
"$  c #1E3B4C",
"%  c #273B46",
"&  c #34434B",
"*  c #2D4959",
"=  c #364953",
"-  c #334956",
";  c #2C5166",
":  c #395666",
">  c #2E5972",
",  c #345C73",
"<  c #254B62",
"1  c #3B6278",
"2  c #445F6F",
"3  c #446273",
"4  c #4B6A7C",
"5  c #42677B",
"6  c #46606F",
"7  c #0A6797",
"8  c #096798",
"9  c #136898",
"0  c #396883",
"q  c #236F99",
"w  c #387798",
"e  c #28729D",
"r  c #006AA7",
"t  c #0068A8",
"y  c #0A71A7",
"u  c #0074B6",
"i  c #0E7DB6",
"p  c #1575A7",
"a  c #2D7CA7",
"s  c #2C7CAB",
"d  c #2578A6",
"f  c #317EAB",
"g  c #3E7FA5",
"h  c #247EB4",
"j  c #2A7FB1",
"k  c #466D84",
"l  c #4C7185",
"z  c #4A738A",
"x  c #55778B",
"c  c #4D7A93",
"v  c #4E7F9B",
"b  c #467995",
"n  c #567E94",
"m  c #5D7D90",
"M  c #007EC6",
"N  c #2E80AF",
"B  c #3381AF",
"V  c #3B82A7",
"C  c #2681B5",
"Z  c #2D82B3",
"A  c #2C86BB",
"S  c #2D89BF",
"D  c #2A87BB",
"F  c #3484B3",
"G  c #3886B4",
"H  c #3C8AB6",
"J  c #3C8DBB",
"K  c #3388B9",
"L  c #4D809E",
"P  c #54829C",
"I  c #5A839A",
"U  c #5B8196",
"Y  c #648598",
"T  c #728894",
"R  c #4C84A5",
"E  c #4D89A9",
"W  c #4986A8",
"Q  c #5185A4",
"!  c #5389A6",
"~  c #5C8AA4",
"^  c #538BAB",
"/  c #5C8EAA",
"(  c #5987A1",
")  c #5E91AE",
"_  c #408FBD",
"`  c #488BB1",
"'  c #4291BE",
"]  c #4C92BA",
"[  c #5392B5",
"{  c #5D94B3",
"}  c #5A97B9",
"|  c #5C9ABD",
" . c #5798BB",
".. c #538DB0",
"X. c #628DA5",
"o. c #618FA9",
"O. c #6894AD",
"+. c #7C99A9",
"@. c #6296B3",
"#. c #6C9AB4",
"$. c #639BBB",
"%. c #689AB7",
"&. c #759DB3",
"*. c #6DA1BE",
"=. c #65A0BF",
"-. c #71A1BB",
";. c #0784C7",
":. c #018CD7",
">. c #028DD9",
",. c #0085D7",
"<. c #0D92D7",
"1. c #1193D7",
"2. c #1094D9",
"3. c #2D8DC5",
"4. c #2E8FC8",
"5. c #268DC7",
"6. c #348EC3",
"7. c #2E91CA",
"8. c #2C91C6",
"9. c #3391C7",
"0. c #3D95C4",
"q. c #3393CC",
"w. c #3A97CD",
"e. c #2E96D1",
"r. c #2F98D5",
"t. c #209BDA",
"y. c #3497D1",
"u. c #3599D2",
"i. c #3A9CD5",
"p. c #359DD9",
"a. c #3B9FD8",
"s. c #3EA1DA",
"d. c #3EA2D7",
"f. c #3DA5E1",
"g. c #20AAF7",
"h. c #4594C2",
"j. c #4896C3",
"k. c #439ACD",
"l. c #4D9CCA",
"z. c #4998C6",
"x. c #5B9CC1",
"c. c #549FCB",
"v. c #549CC2",
"b. c #429ED4",
"n. c #4B9FD0",
"m. c #629FC1",
"M. c #52A1CE",
"N. c #5CA3CB",
"B. c #42A0D7",
"V. c #4AA1D3",
"C. c #42A4DD",
"Z. c #49A6DC",
"A. c #43A8DD",
"S. c #4BAADC",
"D. c #5CA9D4",
"F. c #57A9D8",
"G. c #5AB0DE",
"H. c #64A1C4",
"J. c #6DA5C4",
"K. c #62A4C9",
"L. c #64A8CE",
"P. c #6AA6C9",
"I. c #74ACCB",
"U. c #7BB2CE",
"Y. c #64ABD3",
"T. c #6CAED3",
"R. c #62AFDC",
"E. c #71AFD1",
"W. c #6BB2DA",
"Q. c #74B2D4",
"!. c #7CB4D4",
"~. c #74B5DA",
"^. c #7CBADD",
"/. c #79B5D9",
"(. c #44A7E0",
"). c #46A9E2",
"_. c #4BACE5",
"`. c #46ADE9",
"'. c #4DAFE8",
"]. c #4FB0E9",
"[. c #50B1EA",
"{. c #5AB7E9",
"}. c #4BB3ED",
"|. c #68B8E6",
" X c #7EC1E8",
".X c #8C979D",
"XX c #969899",
"oX c #A39F9C",
"OX c #A3A09E",
"+X c #989EA0",
"@X c #8EA2AC",
"#X c #85A0AE",
"$X c #9DA1A3",
"%X c #9AA5AB",
"&X c #99A8AF",
"*X c #87A3B2",
"=X c #8CA8B7",
"-X c #9BABB3",
";X c #9AAEB9",
":X c #95ACB7",
">X c #9AB1BD",
",X c #95B0BF",
"<X c #A1A3A4",
"1X c #A0A8AC",
"2X c #A1AEB4",
"3X c #A1B2BC",
"4X c #86B3CC",
"5X c #9BB4C1",
"6X c #9ABBCC",
"7X c #96B8CB",
"8X c #82B6D5",
"9X c #84B8D7",
"0X c #85BCDA",
"qX c #89BEDB",
"wX c #8BBBD7",
"eX c #96BED4",
"rX c #84ACC1",
"tX c #A0BAC7",
"yX c #83BFE1",
"uX c #8BC1DE",
"iX c #9CC1D4",
"pX c #94C2DC",
"aX c #9BC5DB",
"sX c #9FC9DE",
"dX c #94C0D7",
"fX c #A1C6DA",
"gX c #A2C7DA",
"hX c #83C2E3",
"jX c #8BC3E4",
"kX c #8DCCED",
"lX c #88C6E9",
"zX c #94C6E2",
"xX c #9AC7E0",
"cX c #93C8E6",
"vX c #9BCBE4",
"bX c #94CCEB",
"nX c #9ACEEA",
"mX c #9DD2ED",
"MX c #93D1EE",
"NX c #9BD5F4",
"BX c #98D7F8",
"VX c #9BDCFD",
"CX c #A4CDE3",
"ZX c #A7CEE4",
"AX c #ADD1E5",
"SX c #A3D2EC",
"DX c #AED6EC",
"FX c #B2D6EB",
"GX c #B4D5E9",
"HX c #A6D9F5",
"JX c #B4DCF3",
"KX c #BDDFF2",
"LX c #9EE0FF",
"PX c #A1E2FF",
"IX c #B3E0F9",
"UX c None",
/* pixels */
"UXUXUXUXUXUXUXUXUXUXUXUXUXUXUXUXUXUXUXUXUXUXUXUXUXUXUXUXUXUXUXUXUXUXUXUXUXUXUXUXUXUXUXUXUXUXUXUXUXUXUXUXUXUXUXUXUXUXUXUXUXUXUXUX",
"UXUXUXUXUXUXUXUXUXUXUXUXUXUXUXUXUXUXUXUXUXUXUXUXUXUXUXUXUXUXUXUXUXUXUXUXUXUXUXUXUXUXUXUXUXUXUXUXUXUXUXUXUXUXUXUXUXUXUXUXUXUXUXUX",
"UXUXUXUXUXUXUXUXUXUXUXUXUXUXUXUXUXUXUXUXUXUXUXUXUXUX% : 5 c P R P c z , ; o UXUXUXUXUXUXUXUXUXUXUXUXUXUXUXUXUXUXUXUXUXUXUXUXUXUX",
"UXUXUXUXUXUXUXUXUXUXUXUXUXUXUXUXUXUXUXUXUXUX% k $.9XvXSXSXSXvXvXzXzXzXpXeXwXJ.^ , o UXUXUXUXUXUXUXUXUXUXUXUXUXUXUXUXUXUXUXUXUXUX",
"UXUXUXUXUXUXUXUXUXUXUXUXUXUXUXUXUXUXUXUX3 m.bXJXJXnX X|.].S.(.s.s.a.d.B.Z.Y.!.dXpX!.^ < UXUXUXUXUXUXUXUXUXUXUXUXUXUXUXUXUXUXUXUX",
"UXUXUXUXUXUXUXUXUXUXUXUXUXUXUXUXUXUX0 P.nXFXbX|.'.`.`._.)._.(.Z.s.d.s.u.u.u.e.y.V.E.aXpXK.> UXUXUXUXUXUXUXUXUXUXUXUXUXUXUXUXUXUX",
"UXUXUXUXUXUXUXUXUXUXUXUXUXUXUXUX: m.eXfXW.).).`.'.'.].'.'._._.).(.s.s.s.d.u.u.u.y.e.q.D.dXvXK.; UXUXUXUXUXUXUXUXUXUXUXUXUXUXUXUX",
"UXUXUXUXUXUXUXUXUXUXUXUXUXUXX Q 9XeXY.u.a.C.)._.'.[.[.'.'._.).).(.(.s.s.s.s.u.u.y.y.y.e.y.D.gXcXW X UXUXUXUXUXUXUXUXUXUXUXUXUXUX",
"UXUXUXUXUXUXUXUXUXUXUXUXUX= x.7XI.y.e.i.i.b.(._.'.'.[.'.'._._._.`.(.A.s.d.a.a.u.u.u.u.y.y.e.u./.AXT.$ UXUXUXUXUXUXUXUXUXUXUXUXUX",
"UXUXUXUXUXUXUXUXUXUXUXUX3 E.7Xl.5.7.q.y.i.i.b.(.S.'.'.[.[.[._._.).).A.A.s.a.a.u.u.u.u.y.y.u.u.r.V.ZXjX> UXUXUXUXUXUXUXUXUXUXUXUX",
"UXUXUXUXUXUXUXUXUXUXUXx E.7X9.3.9.4.7.y.y.i.b.f.S._.'.[.[._.'._.'.).(.A.s.s.a.a.i.u.u.y.y.y.u.u.u.d.xXnX0 UXUXUXUXUXUXUXUXUXUXUX",
"UXUXUXUXUXUXUXUXUXUXx 9X4X4.4.4.4.9.7.q.q.w.i.b.C._._.'.[.[.[._._._.(.(.(.C.d.a.i.u.u.y.y.y.u.u.u.a.p.jXSX0 UXUXUXUXUXUXUXUXUXUX",
"UXUXUXUXUXUXUXUXUXl 0XwXy.7.9.4.3.4.4.7.q.y.i.i.i.(._.'.'.[.'.'._.'._.Z.(.s.d.a.d.i.u.u.u.u.u.y.u.u.a.p.jXnX, UXUXUXUXUXUXUXUXUX",
"UXUXUXUXUXUXUXUX= yXeXi.y.q.7.7.4.4.4.9.9.y.w.u.i.B.Z._.[.[.[.[.'.'._._.).(.(.d.s.d.i.u.u.u.y.y.u.u.u.a.a.vXkX% UXUXUXUXUXUXUXUX",
"UXUXUXUXUXUXUXO yXGXb.i.i.y.y.9.3.3.3.3.4.4.q.q.w.u.a.C._._._.]._.'._._.).A.s.C.i.i.u.u.q.q.q.y.y.y.i.a.p.s.AX/.. UXUXUXUXUXUXUX",
"UXUXUXUXUXUXUX%.GX|.f.b.i.9.A j f s f s f f f f G G H _ ' ' j.z.h.h.h.' h.' J J J H H K K G F B j 3.y.u.a.p.F.FX[ UXUXUXUXUXUXUX",
"UXUXUXUXUXUX6 NXnX`.).B.9._ L.hXkXkXkXkXkXkXkXkXkXkXkXkXkXkXMX| | MXkXkXkXkXkXkXkXkXkXkXkXkXkXlXQ.] Z q.u.d.s.~.NX; UXUXUXUXUXUX",
"UXUXUXUXUX  /.GX[.].'.i.] cXPXVXVXVXVXVXVXVXVXVXVXVXVXVXVXVXPXN.H.LXVXVXVXVXVXVXVXVXVXVXVXVXVXVXVXHX^.J q.i.p.s.ZXQ.UXUXUXUXUXUX",
"UXUXUXUXUXz HXlX`.[._.h.9XVXBXBXVXVXVXVXVXBXVXVXVXVXVXVXBXBXVXx.$.VXBXBXBXVXVXVXVXVXBXVXVXVXVXBXBXVXPX^.S u.p.s.G.DX0 UXUXUXUXUX",
"UXUXUXUXO /.FX'.].[.Z.[ NXBXBXNXcXqXqXqXuXuXuXuXqXqXqXbXBXBXHX .$.VXBXBXcXuXjXuXuXuXuXuXuXuXjXnXNXNXBXNX' 7.u.u.u.vXQ.UXUXUXUXUX",
"UXUXUXUX4 SX X`.].[.b.$.HXMXNX!.f F j s d s s d s s d $.NXmXHX .} NXNXNXH.J k.h.0.0.J J J K F ] bXNXMXHXN.3.u.d.u.G.SX1 UXUXUXUX",
"UXUXUXUXJ.FX_.'.'.].k.J.mXnXSXv.9.i.q.q.7.8.4.4.4.7.h { NXnXNX[ { SXmXSXL.Z.'._.).).(.A.s.s.a.3.H.mXmXmXN.D u.u.u.u.CXH.UXUXUXUX",
"UXUXUX& jXjX).'.'.].k.J.nXvXSXx.w.i.i.w.q.q.4.4.8.4.C @.SXvXSX[ { mXcXvXL.Z.]._.]._.`.).(.s.s.6.{ SXvXSXN.D y.y.u.p.~.cX% UXUXUX",
"UXUXUXl SX|.)._.'.[.k.*.vXzXvXx.a.b.i.u.q.q.7.7.4.4.C @.vXzXvX..) vXaXCXL.A.].].]._.).).(.(.C.q.{ vXaXvX=.3.u.y.u.u.B.SXk UXUXUX",
"UXUXUX%.ZX).)._._.'.k.#.CXpXfXK.C.(.b.i.y.q.q.4.4.4.h ) CXaXfX../ sXiXaXH.A.[.].'.'._._.Z.A.A.9.{ gXaXgXx.3.y.u.y.u.u.xX$.UXUXUX",
"UXUX+ !.zXf.).)._.'.b.&.fXeXiXK.(.).b.i.i.y.q.q.q.4.h o.fXfXfX^ ~ aXiXiXH.A.[.].[.[.'._._.).).q.) iXdXiX$.4.y.u.y.u.e././.UXUXUX",
"UXUX= zX/.f.).(.)._.w.#.eX6XeXm.b._.(.b.i.i.y.q.4.3.h / tXeXeX^ I iXiXiXH.B.].].'.'.'.'._.).(.q.o.iX6XfX| 4.u.u.y.y.y.D.zX& UXUX",
"UXUX2 zXG.f.(.).).'.b.%.tX6XtXrX` h.h.6.H f f f s s q X.eX6XtXE I iX5XiX{ K ' ' h.' ' h._ J J E =X6X6X6X[ q.u.u.y.y.e.n.zX, UXUX",
"UXUXk pXS.C.(.).)._.C.x.5X5X5X5X=X*X*X*X*X*X*X*X*X#X#X=X5X5XtXv I 6X5X5X=X*X*X*X#X*X*X*X*X*X*X,X6X5X5X,XH u.u.u.y.y.y.u.pXz UXUX",
"UXUXU pXB.a.b.(.(.).).z.5X5X5X5X5X5X5X5X5X5X5X5X5X5X5X5X5X5XtXE U 5X,X,X>X>X5X5XtX>X>X5X5X5X5X>X>X>X3XO.6.s.i.u.u.y.y.y.pXP UXUX",
"UXUXX.wXi.a.C.C.(.(.).b.x.;X2X;X;X;X;X;X;X;X;X;X;X;X;X;X:X;X;Xv U ;X;X;X;X;X>X;X>X;X;X;X;X;X;X;X3X2X#XH i.d.d.u.i.u.y.e.wX/ UXUX",
"UXUXX.wXu.i.a.C.C.(.).).b.j.#.#X+X*X@X@X+X*X@X@X+X*X@X:X:X&X2Xv U -X&X-X&X@X@X@X@X@X@X@X@X@X@X@X+./ 6.d.s.d.i.d.i.u.y.e.qX/ UXUX",
"UXUX~ wXy.i.a.a.C.C.(.(.).Z.i.k.z.h.z.] j.j._ _ G G s Y &X%X2Xv x 1X%X-X~ s G H J h.h.j.j.j.j.h.w.b.(.(.C.a.a.a.u.i.u.y.0X) UXUX",
"UXUXX.wXy.i.u.a.a.C.C.(.)._._._._.]._.'.'.'._.).b.i.3.Y 1X%X1Xv m %X%X1X^ 8.u.i.b.C._._.'.'.'.'.'._._._.(.C.C.a.a.i.u.y.wX/ UXUX",
"UXUX( wXw.u.u.u.a.s.C.(.(.)._._._.].[.[.[.[.'._.).b.9.m $X+X<Xv x $X$X<X^ 4.u.i.a.C.(.'.'.[.[.'.'._._.(.(.(.C.C.a.a.u.u.pXP UXUX",
"UXUXl eXb.y.y.u.u.a.C.C.(.).(._._._.'.'.'.'.[.[.'.).9.m $X+X<Xv x OX+X$X! 3.q.y.i.u.C.)._.'.[.'.'.'._._.(.(.(.b.s.a.a.i.pXc UXUX",
"UXUX6 zXF.y.y.u.u.a.a.C.(.(.(._._.'.'.'.[.'.[.'.'._.y.Y oXXXoXb m oXXXoXR 3.q.q.i.u.b.(._._.].].[.'.'._._.(.).C.C.d.a.V.xX, UXUX",
"UXUX& 0XT.e.y.y.u.a.a.a.s.(.(.).`.)._._.'.'.'.[.[.'.C.] .X.XT f W .XXXT s 4.q.7.w.u.a.b.A._.'.].[.'.'.'._._.).C.A.s.p.Y.zX* UXUX",
"UXUX+ !.wXe.u.u.y.u.u.a.s.(.(.).)._.).].'.'.'.[.[.[.'.b.6.` K 9.3.Z s h 3.3.Z J K 9.u.b.C.(._._.[.[.'.'._._.).).(.s.p.^.0X+ UXUX",
"UXUXUX@.xXu.u.u.w.y.u.i.a.s.C.(.(.S.).)._._.'.'.'.[.[._.C.a.u.y.q.7.4.4.8.K {.f.{.J q.u.i.a.Z._.'.'.'.'.'._._.).(.(.s.xXJ.UXUXUX",
"UXUXUXl CXF.y.y.u.y.u.u.d.u.0.h.z.z.l.l.l.M.l.M.V.A.S.l.l.z.h.J J H G F C B {.g.{.H A J ' ' z.z.c.M.V.V.Z.'._._.(.(.F.SXb UXUXUX",
"UXUXUX% yX0Xp.u.u.y.y.u.u.J L.S.A.A.A.A.A.A.(.S.Y.j.c.G.S.A.A.A.A.A.A.S.v.e T.{.W.w L.A.A.A.A.A.A.A.S.Y.N.C._._._.f.^.nX% UXUXUX",
"UXUXUXUXm.fXa.u.u.u.y.y.3.H.t.:.>.1.1.1.1.2.2.:.2.I.L.>.:.<.2.2.2.2.:.:.B.) V.,.d.E M.>.:.2.1.1.1.1.:.>.F.c._._._.(.ZXE.UXUXUXUX",
"UXUXUXUX3 nX~.p.i.u.y.y.S $.;.;.H.}  .x.x. .=.0.9.-.v.M 8.*.x. . .{ v.M 8.O.j.M 0.L  .;.8.%.[  . .$.v.M 3.m.(.'.`.|.DX0 UXUXUXUX",
"UXUXUXUX  Q.CXa.p.u.u.u.S O.i ;.O.B J J J J ..&.-.X.[ u H @.' ' H W @.u K X.` u J P ..u K ! D q.q.J @.u Z $.A.].).SXkX  UXUXUXUX",
"UXUXUXUXUXk mX~.p.u.i.u.S X.y r W E E W E E ! y r +.! r p ! E E W E a t B Y R t V P Q r N ! 8.i.i.h./ t d %.S._.|.JXv UXUXUXUXUX",
"UXUXUXUXUX  E.AXd.a.i.u.8.! b 9 7 7 8 8 7 7 7 9 w X.X.q 7 7 7 7 7 7 7 9 U L I 7 L b I 9 b Q 8.w.i.J Y 9 w @.)._.FXkX  UXUXUXUXUX",
"UXUXUXUXUXUX3 bXuXp.d.i.i.S E I P P ( ( I ~ ~ ~ / k.j.o.X./ X.~ ~ ~ ( ~ ` Z W I L d V U L Z 8.y.u.q.` ~ / k.`.lXIXl UXUXUXUXUXUX",
"UXUXUXUXUXUXUX@.DXR.p.a.u.u.q.7.4.q.q.w.u.i.u.b.(._._.Z.A.Z.Z.Z.Z.Z.B.u.i.i.9.6.3.7.3.D 5.3.9.q.q.u.y.w.i.(.{.KXE.UXUXUXUXUXUXUX",
"UXUXUXUXUXUXUX+ ~.AXZ.p.u.u.u.u.u.u.u.i.d.Z.(.(.).)._.`.'.'.'.'.].[.[._.B.i.i.u.y.7.4.4.3.4.4.q.q.w.i.i.a.Z.AXbX# UXUXUXUXUXUXUX",
"UXUXUXUXUXUXUXUX= kXCXa.a.i.u.u.u.y.u.i.a.s.(.(.(.)._._._.'.'.].].].[.'._.C.u.u.y.q.q.4.4.3.4.4.q.q.w.u.u.aXNX: UXUXUXUXUXUXUXUX",
"UXUXUXUXUXUXUXUXUX4 bXxXp.a.u.u.y.y.y.u.u.d.C.C.Z.).).)._.'.'.'.].[.].'._.Z.C.i.u.y.q.4.6.4.4.4.q.q.q.e.8XnXx UXUXUXUXUXUXUXUXUX",
"UXUXUXUXUXUXUXUXUXUXz bXxXa.u.u.u.y.y.y.u.a.a.C.(.(.(._._._.'.'.].].].].'._.A.C.i.u.w.q.7.4.4.4.4.4.7.4XzXP UXUXUXUXUXUXUXUXUXUX",
"UXUXUXUXUXUXUXUXUXUXUXx bXxXC.p.p.u.y.y.u.u.u.C.s.C.(.(.)._._._.'.].].].[.'.Z.B.b.u.w.q.q.7.4.4.3.4.4XjXP UXUXUXUXUXUXUXUXUXUXUX",
"UXUXUXUXUXUXUXUXUXUXUXUXk lXgXR.r.y.u.y.i.y.u.a.s.(.(.(.(.)._._._.'.].].[.[.'.).B.a.u.w.q.q.7.5.k.7X9Xz UXUXUXUXUXUXUXUXUXUXUXUX",
"UXUXUXUXUXUXUXUXUXUXUXUXUX= ~.ZX9Xi.y.y.y.y.u.i.s.s.C.(.(._._._._.'.'.].'.'.'.'.).a.a.u.y.7.7.P.6XQ.: UXUXUXUXUXUXUXUXUXUXUXUXUX",
"UXUXUXUXUXUXUXUXUXUXUXUXUXUXO $.cXgXY.y.e.y.y.u.i.a.a.(.(._.(._._.].'.'.].'.[.'.`.A.i.u.e.N.7XwX$.# UXUXUXUXUXUXUXUXUXUXUXUXUXUX",
"UXUXUXUXUXUXUXUXUXUXUXUXUXUXUXUX: T.vXaXL.y.e.y.i.a.a.C.C.(.(._.)._.'.'.'.[.[.'.].f.C.Y.eXaXE.5 UXUXUXUXUXUXUXUXUXUXUXUXUXUXUXUX",
"UXUXUXUXUXUXUXUXUXUXUXUXUXUXUXUXUX  k E.zXaXE.V.u.e.p.a.C.(.(.(.).'.'.)._.`._._.|.jXAXSX^.c UXUXUXUXUXUXUXUXUXUXUXUXUXUXUXUXUXUX",
"UXUXUXUXUXUXUXUXUXUXUXUXUXUXUXUXUXUXUX+ 5 m.qXpXeX9XT.F.Z.C.A.(.).)._.{.|. XnXDXIXHX!.k UXUXUXUXUXUXUXUXUXUXUXUXUXUXUXUXUXUXUXUX",
"UXUXUXUXUXUXUXUXUXUXUXUXUXUXUXUXUXUXUXUXUXUX& z $./.jXxXvXvXnXnXnXSXSXJXHXHXbXU.U & UXUXUXUXUXUXUXUXUXUXUXUXUXUXUXUXUXUXUXUXUXUX",
"UXUXUXUXUXUXUXUXUXUXUXUXUXUXUXUXUXUXUXUXUXUXUXUXUXO = 3 U X.#.#.-.#.O.I 4 = O UXUXUXUXUXUXUXUXUXUXUXUXUXUXUXUXUXUXUXUXUXUXUXUXUX",
"UXUXUXUXUXUXUXUXUXUXUXUXUXUXUXUXUXUXUXUXUXUXUXUXUXUXUXUXUXUXUXUXUXUXUXUXUXUXUXUXUXUXUXUXUXUXUXUXUXUXUXUXUXUXUXUXUXUXUXUXUXUXUXUX",
"UXUXUXUXUXUXUXUXUXUXUXUXUXUXUXUXUXUXUXUXUXUXUXUXUXUXUXUXUXUXUXUXUXUXUXUXUXUXUXUXUXUXUXUXUXUXUXUXUXUXUXUXUXUXUXUXUXUXUXUXUXUXUXUX"
};
