/* XPM */
static char *payprocoin__[] = {
/* columns rows colors chars-per-pixel */
"16 16 179 2",
"   c #33789D",
".  c #267FAF",
"X  c #347AA0",
"o  c #357EA6",
"O  c #476C83",
"+  c #4C7185",
"@  c #4F7185",
"#  c #587A8E",
"$  c #5B7F93",
"%  c #637C8B",
"&  c #647D8B",
"*  c #607D8D",
"=  c #617E8D",
"-  c #3A83AB",
";  c #3983AC",
":  c #3E87AC",
">  c #2E84B4",
",  c #328ABF",
"<  c #378EBD",
"1  c #598096",
"2  c #5D839A",
"3  c #6A8291",
"4  c #6C8492",
"5  c #6D8593",
"6  c #6F8795",
"7  c #65899D",
"8  c #4284A9",
"9  c #4886AB",
"0  c #5187A7",
"q  c #5D90AF",
"w  c #4691BD",
"e  c #5194BB",
"r  c #5594B9",
"t  c #5695BA",
"y  c #5194BC",
"u  c #5E9BBE",
"i  c #7CA3B9",
"p  c #2589C5",
"a  c #288DC7",
"s  c #2D8EC5",
"d  c #248BC9",
"f  c #248FCA",
"g  c #3A96C5",
"h  c #3995C6",
"j  c #3190C8",
"k  c #3792C8",
"l  c #3594C8",
"z  c #3696CB",
"x  c #3698CE",
"c  c #3F98CB",
"v  c #3C9BCD",
"b  c #2B9BD7",
"n  c #2E99D7",
"m  c #259ADE",
"M  c #259BDF",
"N  c #2D9CDC",
"B  c #2C9DDF",
"V  c #3299D4",
"C  c #389BD0",
"Z  c #3F9DD3",
"A  c #3F9CD4",
"S  c #309FDE",
"D  c #35A0DF",
"F  c #289FE5",
"G  c #30A0E3",
"H  c #33A3E2",
"J  c #34A1E0",
"K  c #34A2E3",
"L  c #30A1E4",
"P  c #3AA3E0",
"I  c #39A4E2",
"U  c #3AA4E2",
"Y  c #3CA6E2",
"T  c #3EA9E5",
"R  c #3DA8E7",
"E  c #32A6E9",
"W  c #34A7E9",
"Q  c #34A7EB",
"!  c #36ABEE",
"~  c #3FABE9",
"^  c #3CACED",
"/  c #3FADEC",
"(  c #3AAEF0",
")  c #4F9CC7",
"_  c #459ACB",
"`  c #459CCE",
"'  c #479FCF",
"]  c #489BCB",
"[  c #489DCE",
"{  c #589AC0",
"}  c #5D9CC1",
"|  c #529FCB",
" . c #429ED0",
".. c #419CD2",
"X. c #489FD3",
"o. c #45A1D4",
"O. c #40A1D9",
"+. c #45A1D8",
"@. c #45A2D8",
"#. c #40A3DC",
"$. c #4DA7DB",
"%. c #4DA9DD",
"&. c #5CA9D6",
"*. c #5AABD9",
"=. c #59ADDD",
"-. c #5AACDC",
";. c #65A5CA",
":. c #6CA7C9",
">. c #64AED9",
",. c #60AFDD",
"<. c #69B3DD",
"1. c #44A7E1",
"2. c #47A9E0",
"3. c #45A8E2",
"4. c #41AAE7",
"5. c #45A8E4",
"6. c #44A9E5",
"7. c #45AAE6",
"8. c #4CAAE1",
"9. c #4EABE1",
"0. c #48ACE5",
"q. c #4BADE6",
"w. c #40AAE8",
"e. c #45AEEB",
"r. c #46AEEB",
"t. c #44AFEF",
"y. c #50ABE0",
"u. c #52ADE3",
"i. c #51AEE3",
"p. c #48B1EE",
"a. c #50B0E6",
"s. c #5CB0E0",
"d. c #54B5EA",
"f. c #47B3F0",
"g. c #4AB3F0",
"h. c #4BB4F1",
"j. c #4BB5F3",
"k. c #4CB5F1",
"l. c #48B9FB",
"z. c #4CBCFD",
"x. c #55B7F2",
"c. c #50B7F4",
"v. c #5FBEF3",
"b. c #54BDF9",
"n. c #69B7E4",
"m. c #62B9EA",
"M. c #72BBE3",
"N. c #76BDE3",
"B. c #55C0FE",
"V. c #62C1F6",
"C. c #64C0F6",
"Z. c #918E8D",
"A. c #929395",
"S. c #87A1AE",
"D. c #84A1B1",
"F. c #84A2B1",
"G. c #89A3B2",
"H. c #85AABD",
"J. c #94A7B0",
"K. c #92A8B3",
"L. c #95A8B0",
"P. c #94AAB6",
"I. c #87AEC2",
"U. c #88ADC0",
"Y. c #94B1C0",
"T. c #99B7C6",
"R. c #8FC1DB",
"E. c #90C0D9",
"W. c #82C1E2",
"Q. c #83C1E2",
"!. c #85C1E0",
"~. c #88C4E3",
"^. c #8ECCEB",
"/. c #96C7E1",
"(. c #97C8E2",
"). c #91CAE7",
"_. c #94CDEA",
"`. c #91CFEE",
"'. c None",
/* pixels */
"'.'.'.'.'.'.'.6 3 '.'.'.'.'.'.'.",
"'.'.'.'.# >.v.k.T O.| O '.'.'.'.",
"'.'.'.9 B Q t.g.w.S m ! { '.'.'.",
"'.'.t m j c $.i.9.%.o.x F y '.'.",
"'.7 B.N.).!.^.W.W.`.~._.M./ 2 '.",
"'.-.C./.A d ] E.E.m.w.@.(.q._ '.",
"'.j.*.T.X.a w U.I.,.7.[ Y.` J '.",
"& / 1.H.J.S.K.F.F.P.G.L.i V H = ",
"& D I 3.-.a.u Z.A.y o.s.7.P Y = ",
"'.#.n 3.p.l.i.q 0 k D t.x.r.0.'.",
"'.&.N l C o...b f h h z v w.n.'.",
"'.@ l.>   8 : - - o   < > d.1 '.",
"'.'.;.W s A 9.%.y...s p L :.'.'.",
"'.'.'.} ( E ~ t.c.p.G J t '.'.'.",
"'.'.'.'.$ ) %.k.b.C.<.+ '.'.'.'.",
"'.'.'.'.'.'.'.5 5 '.'.'.'.'.'.'."
};
