/* XPM */
static char *payprocoin__[] = {
/* columns rows colors chars-per-pixel */
"32 32 189 2",
"   c #334047",
".  c #344C5A",
"X  c #3E5563",
"o  c #3F5967",
"O  c #3F5A69",
"+  c #414E56",
"@  c #405764",
"#  c #425966",
"$  c #455D6B",
"%  c #4A626F",
"&  c #466272",
"*  c #4C6572",
"=  c #4D6979",
"-  c #526774",
";  c #536976",
":  c #5C727E",
">  c #31769D",
",  c #357A9F",
"<  c #3A7A9E",
"1  c #1779AB",
"2  c #1A79AB",
"3  c #267DAA",
"4  c #287DAA",
"5  c #347AA1",
"6  c #3B7DA1",
"7  c #4B6E82",
"8  c #5E7581",
"9  c #55788C",
"0  c #597B8E",
"q  c #567B90",
"w  c #407EA1",
"e  c #3D80A6",
"r  c #3382AC",
"t  c #3A84AB",
"y  c #2E84B6",
"u  c #2D85B9",
"i  c #3B89B4",
"p  c #3087BA",
"a  c #348ABC",
"s  c #398DBE",
"d  c #5C859D",
"f  c #648799",
"g  c #6C8C9E",
"h  c #788B96",
"j  c #768F9E",
"k  c #4482A4",
"l  c #4486AB",
"z  c #4987AA",
"x  c #4588AF",
"c  c #4D8AAC",
"v  c #5C8AA3",
"b  c #5C8EAA",
"n  c #458CB5",
"m  c #4A8BB1",
"M  c #468FB9",
"N  c #4591BA",
"B  c #4A94BC",
"V  c #618AA2",
"C  c #618FA9",
"Z  c #6492AC",
"A  c #6893AB",
"S  c #7493A4",
"D  c #7396A9",
"F  c #769AAD",
"G  c #6E9AB3",
"H  c #729CB3",
"J  c #729FB8",
"K  c #77A0B6",
"L  c #75A2BA",
"P  c #7CA5BD",
"I  c #1C92CF",
"U  c #1993D2",
"Y  c #2E8CC3",
"T  c #2B8EC9",
"R  c #348CC1",
"E  c #388EC0",
"W  c #2795CF",
"Q  c #2C91CA",
"!  c #3590C5",
"~  c #3C92C4",
"^  c #3294CC",
"/  c #3A95CA",
"(  c #3598CE",
")  c #3B99CD",
"_  c #2E96D2",
"`  c #3196D1",
"'  c #3499D4",
"]  c #3A9CD5",
"[  c #3B9FD9",
"{  c #3FA0D6",
"}  c #3DA1DB",
"|  c #4294C3",
" . c #4D97C2",
".. c #4C99C6",
"X. c #449BCC",
"o. c #4A9CCB",
"O. c #5097C1",
"+. c #549DC5",
"@. c #5B9FC6",
"#. c #469ED1",
"$. c #489FD2",
"%. c #54A1CB",
"&. c #5CA3CB",
"*. c #42A1D6",
"=. c #4CA2D4",
"-. c #43A4DC",
";. c #49A5DB",
":. c #4BA9DE",
">. c #50A6D7",
",. c #5AA5D0",
"<. c #59A9D6",
"1. c #51AADE",
"2. c #5AABD9",
"3. c #6CA4C5",
"4. c #62A3C8",
"5. c #75A7C2",
"6. c #7AABC5",
"7. c #75AECD",
"8. c #79AECB",
"9. c #6DADD2",
"0. c #60B1DE",
"q. c #6DB3DB",
"w. c #76B5D7",
"e. c #7AB4D3",
"r. c #72B6DC",
"t. c #78B7DD",
"y. c #7CB9DB",
"u. c #43A7E1",
"i. c #45A9E3",
"p. c #4BACE5",
"a. c #4BAFE9",
"s. c #52ADE2",
"d. c #4EB1EB",
"f. c #56B1E5",
"g. c #59B2E5",
"h. c #50B2EB",
"j. c #5BB6EB",
"k. c #5BB8EE",
"l. c #64B4E2",
"z. c #69BAE9",
"x. c #75BEE7",
"c. c #7BBEE4",
"v. c #64BDF0",
"b. c #73C1ED",
"n. c #7EC1E8",
"m. c #69C1F4",
"M. c #7CCAF7",
"N. c #7DCBF8",
"B. c #8B9498",
"V. c #949799",
"C. c #A3A09E",
"Z. c #83A2B2",
"A. c #8AA6B5",
"S. c #8EA9B7",
"D. c #8FAAB9",
"F. c #92A7B3",
"G. c #93A9B4",
"H. c #92ACBA",
"J. c #9DB0BB",
"K. c #A3A3A3",
"L. c #A1A7AA",
"P. c #A0A8AD",
"I. c #83ADC3",
"U. c #88B2C9",
"Y. c #9FB6C3",
"T. c #9FBDCC",
"R. c #82BCDC",
"E. c #A2B7C2",
"W. c #A1BFCE",
"Q. c #9FC6DA",
"!. c #A1C5D7",
"~. c #A2C7DA",
"^. c #87C1E2",
"/. c #89C2E2",
"(. c #85C5E9",
"). c #8ECBEB",
"_. c #9FCEE5",
"`. c #91CDEC",
"'. c #93D0EF",
"]. c #83CBF4",
"[. c #88CCF3",
"{. c #92D2F3",
"}. c #9FD5F1",
"|. c #A1CFE5",
" X c #A0D4EF",
".X c #A1D5F1",
"XX c #A0DEFD",
"oX c #A3E0FF",
"OX c None",
/* pixels */
"OXOXOXOXOXOXOXOXOXOXOXOXOXOXOXOXOXOXOXOXOXOXOXOXOXOXOXOXOXOXOXOX",
"OXOXOXOXOXOXOXOXOXOXOXOX# q C C b d 7 . OXOXOXOXOXOXOXOXOXOXOXOX",
"OXOXOXOXOXOXOXOXOX; J ).N.v.k.a.i.p.1.0.9.v ; OXOXOXOXOXOXOXOXOX",
"OXOXOXOXOXOXOXOXq c.g.p.a.a.a.p.-.} ' ` _ ;.q.Z OXOXOXOXOXOXOXOX",
"OXOXOXOXOXOXX 3.=.` ] u.a.h.a.a.i.-.} { ' _ _ :.t.$ OXOXOXOXOXOX",
"OXOXOXOXOX$ 9.^ T ^ ' [ i.h.h.a.a.i.} } ] ' ' ` } n.& OXOXOXOXOX",
"OXOXOXOX$ t.` ^ T T ` ' #.a.d.d.d.i.i.} } ] _ ` ' } n.O OXOXOXOX",
"OXOXOXOX^.-.^ R a a p E ~ X.=.=.=.=.=.X.) ~ ~ ! Y _ -.y.OXOXOXOX",
"OXOXOXH m.u.+.].{.{.{.{.'.{.{.w.w.{.{.{.{.{.{.'.n.| _ f.Z OXOXOX",
"OXOX; [.a.$.'.}.'.).`.).`.`.XXy.y.XX{.`.`.`.).{.oX'./ ' x.; OXOX",
"OXOXP v.a.&. XR.E E p p u B .Xe.e..X,.*.$.X.) | /. Xo._ p.J OXOX",
"OXOX(.a.p.&.|.e.] ' ^ Q T M |.8.6.|.2.d.d.i.u.( 8.|.o.( ` c.OXOX",
"OX# b.i.a.@.!.e.u.[ ' ` T n ~.5.P Q.<.d.d.d.i.] 6.Q...` _ l.o OX",
"OX0 j.u.i.@.T.U.o.X.E s u z W.J L T.+.*.=.=.#.| I.T...` ` :.9 OX",
"OXV p.-.i.=.Y.Y.H.H.D.D.D.H.E.H D E.H.D.S.D.H.H.E.S./ ' ` { v OX",
"OXC -.*.u.u.@.A.F.F.F.F.F.F.J.D S J.H.G.G.G.G.G.Z. .[ [ ] [ b OX",
"OXC { [ } i.i.;.=.>.=.o.~ c L.S j P.m ~ X.=.>.=.;.u.-.} ] } b OX",
"OXV *.` } -.i.a.d.d.h.d.i.c C.j h K.M ' } i.d.h.a.a.i.-.[ -.v OX",
"OX9 1.` ' } -.i.a.a.h.h.a. .V.f g B.a Q ( *.p.d.d.a.p.-.} s.q OX",
"OX@ z.Q ' ] } -.-.p.a.h.d.i.| ! p y Y #.) ( { :.s.a.a.p.} z.o OX",
"OXOXy.' ` ] ) *.*.*.*.-.=.>.*.] ` ) i d.#.~ ] { *.=.:.p.i.c.OXOX",
"OXOXG s.' ` | I ( ( ( ( %.Q W ] ) U B Q N Q W / ) I o.p.k.L OXOX",
"OXOX; c.' ' n 1 l t x l b 3 r c z 2 z 3 k 4 e ~ ..3 i p.].8 OXOX",
"OXOXOXJ g.' ~ , , , , 5 m m 5 6 5 , z < e < e ( / k n v.I.OXOXOX",
"OXOXOX  /.-.' ( / ) *.;.p.p.1.1.s.:.[ / ^ R Y ^ ` ] -.`.OXOXOXOX",
"OXOXOXOX% (.[ ' ' ' } u.-.p.a.a.h.h.i.[ ` ^ T T ^ ` c.; OXOXOXOX",
"OXOXOXOXOX& n.} _ ' ' } -.i.a.a.h.h.a.u.' ( Q T ^ q.= OXOXOXOXOX",
"OXOXOXOXOXOX$ y.s._ ` ] } i.i.a.p.h.a.a.$.] Q #.7.* OXOXOXOXOXOX",
"OXOXOXOXOXOXOX+ Z r.;.' ' -.u.p.p.a.a.a.i.s.q.A OXOXOXOXOXOXOXOX",
"OXOXOXOXOXOXOXOXOX- G w.l.s.p.a.h.k.v.N.).L : OXOXOXOXOXOXOXOXOX",
"OXOXOXOXOXOXOXOXOXOXOXOX@ 0 A J J H f * OXOXOXOXOXOXOXOXOXOXOXOX",
"OXOXOXOXOXOXOXOXOXOXOXOXOXOXOXOXOXOXOXOXOXOXOXOXOXOXOXOXOXOXOXOX"
};
